<svg data-v-423bf9ae="" xmlns="http://www.w3.org/2000/svg" viewBox="0 0 343.8885226617927 60" class="font"><!----><!----><!----><g data-v-423bf9ae="" id="87c8e136-f127-478d-b9c9-7e327a93df95" fill="black" transform="matrix(4.078858173644201,0,0,4.078858173644201,1.386806440598832,-9.95241465392315)"><path d="M1.51 2.70L1.51 2.70L3.53 2.81L3.53 2.81Q4.87 2.81 5.46 2.49L5.46 2.49L5.46 2.49Q5.54 2.44 5.61 2.44L5.61 2.44L5.61 2.44Q5.67 2.44 5.67 2.63L5.67 2.63L5.67 2.63Q5.67 2.83 5.43 3.28L5.43 3.28L5.43 3.28Q5.08 3.96 4.42 3.96L4.42 3.96L3.65 3.95L3.65 3.95Q3.54 3.95 3.51 4.07L3.51 4.07L3.51 4.07Q3.42 6.13 3.42 8.52L3.42 8.52L3.42 8.52Q3.42 10.91 3.61 12.11L3.61 12.11L3.61 12.18L3.61 12.18Q3.61 12.53 2.95 12.74L2.95 12.74L2.95 12.74Q2.28 12.95 1.69 12.95L1.69 12.95L1.69 12.95Q1.41 12.95 1.41 12.80L1.41 12.80L1.41 12.80Q1.41 12.75 1.46 12.60L1.46 12.60L1.46 12.60Q1.61 12.29 1.73 9.62L1.73 9.62L1.73 9.62Q1.85 6.94 1.85 5.59L1.85 5.59L1.82 4.06L1.82 4.06Q1.82 3.98 1.74 3.96L1.74 3.96L1.74 3.96Q1.44 3.91 1.06 3.91L1.06 3.91L1.06 3.91Q0.31 3.91-0.06 4.21L-0.06 4.21L-0.06 4.21Q-0.15 4.28-0.24 4.28L-0.24 4.28L-0.24 4.28Q-0.34 4.28-0.34 4.17L-0.34 4.17L-0.34 4.17Q-0.34 4.00-0.16 3.71L-0.16 3.71L-0.16 3.71Q0.01 3.42 0.21 3.21L0.21 3.21L0.21 3.21Q0.69 2.70 1.51 2.70ZM7.39 5.15L7.39 5.15L7.38 6.51L7.38 6.51Q7.38 6.59 7.43 6.59L7.43 6.59L7.43 6.59Q7.49 6.59 7.55 6.55L7.55 6.55L7.55 6.55Q7.90 6.31 8.65 6.31L8.65 6.31L8.65 6.31Q9.93 6.31 10.42 7.18L10.42 7.18L10.42 7.18Q10.60 7.50 10.60 8.04L10.60 8.04L10.60 8.04Q10.60 8.57 10.54 9.51L10.54 9.51L10.54 9.51Q10.47 10.44 10.47 10.84L10.47 10.84L10.47 10.84Q10.47 12.21 10.86 12.66L10.86 12.66L10.86 12.66Q10.93 12.73 10.93 12.80L10.93 12.80L10.93 12.80Q10.93 12.94 10.33 12.94L10.33 12.94L10.33 12.94Q8.71 12.94 8.71 11.42L8.71 11.42L8.71 11.42Q8.71 10.84 8.99 9.77L8.99 9.77L8.99 9.77Q9.27 8.71 9.27 8.20L9.27 8.20L9.27 8.20Q9.27 7.70 9.03 7.43L9.03 7.43L9.03 7.43Q8.79 7.15 8.37 7.15L8.37 7.15L8.37 7.15Q7.95 7.15 7.71 7.34L7.71 7.34L7.71 7.34Q7.46 7.52 7.41 7.71L7.41 7.71L7.36 7.90L7.36 7.90Q7.35 8.16 7.35 9.59L7.35 9.59L7.35 9.59Q7.35 11.02 7.42 11.45L7.42 11.45L7.42 11.45Q7.49 11.87 7.49 11.93L7.49 11.93L7.49 11.93Q7.49 12.33 6.94 12.65L6.94 12.65L6.94 12.65Q6.40 12.96 5.87 12.96L5.87 12.96L5.87 12.96Q5.67 12.96 5.67 12.74L5.67 12.74L5.70 12.47L5.70 12.47Q6.01 10.12 6.01 7.38L6.01 7.38L6.01 7.38Q6.01 6.31 5.92 5.22L5.92 5.22L5.91 4.91L5.91 4.91Q5.88 4.52 5.75 4.24L5.75 4.24L5.75 4.24Q5.61 3.96 5.50 3.88L5.50 3.88L5.38 3.81L5.38 3.81Q5.28 3.75 5.28 3.68L5.28 3.68L5.28 3.68Q5.28 3.49 5.94 3.20L5.94 3.20L5.94 3.20Q6.59 2.91 6.95 2.91L6.95 2.91L6.95 2.91Q7.31 2.91 7.34 3.07L7.34 3.07L7.34 3.07Q7.39 3.78 7.39 5.15ZM12.68 9.11L12.68 9.11L12.70 9.46L12.70 9.46Q12.70 9.55 12.81 9.55L12.81 9.55L12.81 9.55Q13.26 9.51 13.59 9.32L13.59 9.32L13.59 9.32Q13.93 9.13 14.10 8.89L14.10 8.89L14.10 8.89Q14.43 8.37 14.46 7.99L14.46 7.99L14.48 7.83L14.48 7.83Q14.48 7.07 13.87 7.07L13.87 7.07L13.87 7.07Q13.43 7.07 13.15 7.46L13.15 7.46L13.15 7.46Q12.68 8.08 12.68 9.11ZM15.74 10.98L15.74 10.98L15.74 10.98Q15.74 11.51 15.52 11.91L15.52 11.91L15.52 11.91Q15.30 12.31 15.03 12.49L15.03 12.49L15.03 12.49Q14.76 12.68 14.39 12.80L14.39 12.80L14.39 12.80Q13.93 12.94 13.51 12.94L13.51 12.94L13.51 12.94Q12.33 12.94 11.77 12.05L11.77 12.05L11.77 12.05Q11.21 11.17 11.21 9.81L11.21 9.81L11.21 9.81Q11.21 8.44 11.91 7.38L11.91 7.38L11.91 7.38Q12.60 6.31 13.99 6.31L13.99 6.31L13.99 6.31Q15.25 6.31 15.69 7.20L15.69 7.20L15.69 7.20Q15.88 7.53 15.88 7.83L15.88 7.83L15.88 7.83Q15.88 8.13 15.85 8.31L15.85 8.31L15.85 8.31Q15.82 8.48 15.65 8.83L15.65 8.83L15.65 8.83Q15.48 9.18 15.20 9.46L15.20 9.46L15.20 9.46Q14.92 9.74 14.32 10.00L14.32 10.00L14.32 10.00Q13.72 10.25 12.91 10.33L12.91 10.33L12.91 10.33Q12.80 10.33 12.80 10.43L12.80 10.43L12.80 10.43Q12.80 10.56 12.89 10.80L12.89 10.80L12.89 10.80Q12.98 11.05 13.09 11.21L13.09 11.21L13.09 11.21Q13.40 11.61 14.00 11.61L14.00 11.61L14.00 11.61Q14.60 11.61 15.02 11.21L15.02 11.21L15.02 11.21Q15.25 11.00 15.39 10.70L15.39 10.70L15.39 10.70Q15.44 10.58 15.53 10.58L15.53 10.58L15.53 10.58Q15.62 10.58 15.68 10.74L15.68 10.74L15.68 10.74Q15.74 10.89 15.74 10.98ZM21.08 6.37L21.08 6.37L21.10 8.12L21.04 10.54L21.04 10.54Q21.06 10.60 21.08 10.60L21.08 10.60L21.08 10.60Q21.11 10.60 21.13 10.57L21.13 10.57L21.13 10.57Q21.41 10.18 21.82 10.18L21.82 10.18L21.82 10.18Q22.23 10.18 22.23 10.35L22.23 10.35L22.23 10.35Q22.23 10.88 22.44 11.16L22.44 11.16L22.44 11.16Q22.64 11.45 23.01 11.45L23.01 11.45L23.01 11.45Q23.38 11.45 23.72 10.95L23.72 10.95L23.72 10.95Q24.07 10.44 24.07 9.60L24.07 9.60L24.07 9.60Q24.07 9.32 23.95 8.93L23.95 8.93L23.95 8.93Q23.73 8.15 23.11 7.88L23.11 7.88L23.11 7.88Q22.67 7.70 21.66 7.70L21.66 7.70L21.66 7.70Q21.55 7.70 21.55 7.55L21.55 7.55L21.55 7.55Q21.55 6.76 21.83 6.73L21.83 6.73L21.83 6.73Q22.20 6.73 22.62 6.54L22.62 6.54L22.62 6.54Q23.46 6.15 23.46 4.93L23.46 4.93L23.46 4.93Q23.46 3.61 21.95 3.61L21.95 3.61L21.52 3.64L21.52 3.64Q21.27 3.70 21.24 3.85L21.24 3.85L21.24 3.89L21.24 3.89Q21.08 4.45 21.08 6.37ZM19.03 12.87L19.03 12.87L19.05 12.71L19.05 12.71Q19.19 12.46 19.29 10.66L19.29 10.66L19.29 10.66Q19.39 8.86 19.39 7.30L19.39 7.30L19.39 7.30Q19.39 5.74 19.33 4.79L19.33 4.79L19.33 4.79Q19.26 3.85 18.98 3.43L18.98 3.43L18.98 3.43Q18.93 3.36 18.93 3.26L18.93 3.26L18.93 3.26Q18.93 3.16 19.10 3.09L19.10 3.09L19.10 3.09Q20.24 2.65 22.22 2.65L22.22 2.65L22.22 2.65Q22.71 2.65 23.28 2.78L23.28 2.78L23.28 2.78Q23.86 2.91 24.23 3.11L24.23 3.11L24.23 3.11Q24.60 3.30 24.90 3.71L24.90 3.71L24.90 3.71Q25.20 4.12 25.24 4.68L25.24 4.68L25.24 4.68Q25.24 6.71 23.56 7.01L23.56 7.01L23.56 7.01Q23.48 7.04 23.48 7.08L23.48 7.08L23.48 7.08Q23.48 7.11 23.55 7.15L23.55 7.15L23.55 7.15Q24.42 7.29 25.00 7.85L25.00 7.85L25.00 7.85Q25.30 8.12 25.54 8.68L25.54 8.68L25.54 8.68Q25.77 9.24 25.77 9.97L25.77 9.97L25.77 9.97Q25.77 10.91 25.23 11.75L25.23 11.75L25.23 11.75Q24.78 12.43 23.93 12.73L23.93 12.73L23.93 12.73Q23.45 12.89 22.86 12.89L22.86 12.89L22.86 12.89Q21.39 12.89 21 11.96L21 11.96L21 11.96Q20.99 11.91 20.96 11.91L20.96 11.91L20.90 11.97L20.90 11.97Q20.61 12.95 19.22 12.99L19.22 12.99L19.22 12.99Q19.03 12.99 19.03 12.87ZM31.28 6.44L31.28 6.44L31.28 6.44Q31.02 7.95 31.02 10.29L31.02 10.29L31.02 10.29Q31.02 12.01 31.16 12.56L31.16 12.56L31.22 12.74L31.22 12.74Q31.22 12.92 30.91 12.92L30.91 12.92L30.91 12.92Q29.83 12.92 29.68 12.32L29.68 12.32L29.68 12.32Q29.67 12.25 29.62 12.25L29.62 12.25L29.62 12.25Q29.57 12.25 29.53 12.31L29.53 12.31L29.53 12.31Q29.09 12.88 28.18 12.88L28.18 12.88L28.18 12.88Q27.68 12.88 27.13 12.63L27.13 12.63L27.13 12.63Q26.80 12.47 26.59 12.09L26.59 12.09L26.59 12.09Q26.38 11.70 26.38 11.14L26.38 11.14L26.59 8.08L26.59 8.08Q26.59 7.11 26.39 6.71L26.39 6.71L26.39 6.71Q26.32 6.55 26.32 6.51L26.32 6.51L26.32 6.51Q26.32 6.43 26.39 6.40L26.39 6.40L26.39 6.40Q26.61 6.33 26.96 6.33L26.96 6.33L26.96 6.33Q28.32 6.33 28.32 7.45L28.32 7.45L28.32 7.45Q28.32 7.80 28.04 9.04L28.04 9.04L28.04 9.04Q27.75 10.29 27.75 10.81L27.75 10.81L27.75 10.81Q27.75 11.34 27.98 11.62L27.98 11.62L27.98 11.62Q28.21 11.90 28.62 11.90L28.62 11.90L28.62 11.90Q29.04 11.90 29.27 11.61L29.27 11.61L29.27 11.61Q29.51 11.31 29.55 11.02L29.55 11.02L29.60 10.72L29.60 10.72Q29.65 10.23 29.65 9.00L29.65 9.00L29.65 9.00Q29.65 7.77 29.58 7.44L29.58 7.44L29.58 7.44Q29.50 7.11 29.50 7.03L29.50 7.03L29.50 7.03Q29.50 6.68 30.06 6.47L30.06 6.47L30.06 6.47Q30.62 6.27 31.07 6.27L31.07 6.27L31.07 6.27Q31.28 6.27 31.28 6.44ZM34.75 6.38L34.75 6.38L34.75 6.38Q35 6.38 35.20 6.45L35.20 6.45L35.20 6.45Q35.41 6.51 35.42 6.51L35.42 6.51L35.50 6.44L35.45 4.91L35.45 4.91Q35.42 4.52 35.28 4.24L35.28 4.24L35.28 4.24Q35.14 3.96 35.03 3.88L35.03 3.88L34.90 3.81L34.90 3.81Q34.82 3.75 34.82 3.68L34.82 3.68L34.82 3.68Q34.82 3.47 35.47 3.19L35.47 3.19L35.47 3.19Q36.12 2.91 36.48 2.91L36.48 2.91L36.48 2.91Q36.85 2.91 36.88 3.07L36.88 3.07L36.88 3.07Q36.95 3.54 36.95 4.88L36.95 4.88L36.95 4.88Q36.95 6.22 36.88 7.50L36.88 7.50L36.88 7.50Q36.82 8.79 36.82 10.42L36.82 10.42L36.82 10.42Q36.82 12.05 37.03 12.47L37.03 12.47L37.03 12.47Q37.09 12.57 37.09 12.66L37.09 12.66L37.09 12.66Q37.09 12.87 36.48 12.87L36.48 12.87L36.48 12.87Q35.34 12.87 35.34 12.32L35.34 12.32L35.34 12.32Q35.31 12.10 35.31 11.63L35.31 11.63L35.31 11.63Q35.31 11.16 35.40 9.88L35.40 9.88L35.40 9.88Q35.49 8.60 35.49 7.90L35.49 7.90L35.49 7.90Q35.49 7.21 34.80 7.21L34.80 7.21L34.80 7.21Q34.10 7.21 33.74 8.02L33.74 8.02L33.74 8.02Q33.38 8.83 33.38 9.65L33.38 9.65L33.38 9.65Q33.38 11.37 34.24 11.37L34.24 11.37L34.24 11.37Q34.37 11.37 34.49 11.32L34.49 11.32L34.49 11.32Q34.61 11.27 34.64 11.27L34.64 11.27L34.64 11.27Q34.75 11.27 34.81 11.41L34.81 11.41L34.81 11.41Q34.87 11.55 34.87 11.69L34.87 11.69L34.87 11.69Q34.87 12.17 34.50 12.49L34.50 12.49L34.50 12.49Q34.12 12.82 33.57 12.82L33.57 12.82L33.57 12.82Q32.73 12.82 32.30 12.09L32.30 12.09L32.30 12.09Q31.88 11.35 31.88 10.26L31.88 10.26L31.88 10.26Q31.88 8.88 32.54 7.69L32.54 7.69L32.54 7.69Q32.87 7.10 33.45 6.74L33.45 6.74L33.45 6.74Q34.02 6.38 34.75 6.38ZM40.52 6.38L40.52 6.38L40.52 6.38Q40.77 6.38 40.97 6.45L40.97 6.45L40.97 6.45Q41.17 6.51 41.19 6.51L41.19 6.51L41.27 6.44L41.22 4.91L41.22 4.91Q41.19 4.52 41.05 4.24L41.05 4.24L41.05 4.24Q40.91 3.96 40.80 3.88L40.80 3.88L40.67 3.81L40.67 3.81Q40.59 3.75 40.59 3.68L40.59 3.68L40.59 3.68Q40.59 3.47 41.24 3.19L41.24 3.19L41.24 3.19Q41.89 2.91 42.25 2.91L42.25 2.91L42.25 2.91Q42.62 2.91 42.64 3.07L42.64 3.07L42.64 3.07Q42.71 3.54 42.71 4.88L42.71 4.88L42.71 4.88Q42.71 6.22 42.65 7.50L42.65 7.50L42.65 7.50Q42.59 8.79 42.59 10.42L42.59 10.42L42.59 10.42Q42.59 12.05 42.80 12.47L42.80 12.47L42.80 12.47Q42.85 12.57 42.85 12.66L42.85 12.66L42.85 12.66Q42.85 12.87 42.25 12.87L42.25 12.87L42.25 12.87Q41.10 12.87 41.10 12.32L41.10 12.32L41.10 12.32Q41.08 12.10 41.08 11.63L41.08 11.63L41.08 11.63Q41.08 11.16 41.17 9.88L41.17 9.88L41.17 9.88Q41.26 8.60 41.26 7.90L41.26 7.90L41.26 7.90Q41.26 7.21 40.56 7.21L40.56 7.21L40.56 7.21Q39.87 7.21 39.51 8.02L39.51 8.02L39.51 8.02Q39.14 8.83 39.14 9.65L39.14 9.65L39.14 9.65Q39.14 11.37 40.01 11.37L40.01 11.37L40.01 11.37Q40.14 11.37 40.26 11.32L40.26 11.32L40.26 11.32Q40.38 11.27 40.40 11.27L40.40 11.27L40.40 11.27Q40.52 11.27 40.58 11.41L40.58 11.41L40.58 11.41Q40.64 11.55 40.64 11.69L40.64 11.69L40.64 11.69Q40.64 12.17 40.26 12.49L40.26 12.49L40.26 12.49Q39.89 12.82 39.34 12.82L39.34 12.82L39.34 12.82Q38.50 12.82 38.07 12.09L38.07 12.09L38.07 12.09Q37.65 11.35 37.65 10.26L37.65 10.26L37.65 10.26Q37.65 8.88 38.30 7.69L38.30 7.69L38.30 7.69Q38.64 7.10 39.21 6.74L39.21 6.74L39.21 6.74Q39.79 6.38 40.52 6.38ZM44.93 5.18L44.93 5.18L44.59 5.17L44.59 5.17Q44.21 5.17 44.10 5.35L44.10 5.35L44.10 5.35Q44.07 5.39 44.03 5.39L44.03 5.39L44.03 5.39Q43.85 5.39 43.85 4.77L43.85 4.77L43.85 4.77Q43.85 4.14 44.04 3.98L44.04 3.98L44.04 3.98Q44.23 3.81 44.70 3.81L44.70 3.81L44.70 3.81Q45.16 3.81 45.33 3.97L45.33 3.97L45.33 3.97Q45.50 4.13 45.50 4.51L45.50 4.51L45.50 4.51Q45.50 4.89 45.37 5.03L45.37 5.03L45.37 5.03Q45.25 5.18 44.93 5.18ZM43.81 12.25L43.81 12.25L43.96 8.99L43.96 8.99Q43.96 7.83 43.69 7.41L43.69 7.41L43.69 7.41Q43.61 7.27 43.50 7.20L43.50 7.20L43.50 7.20Q43.41 7.17 43.41 7.08L43.41 7.08L43.41 7.08Q43.41 6.83 44.13 6.59L44.13 6.59L44.13 6.59Q44.84 6.36 45.17 6.36L45.17 6.36L45.17 6.36Q45.50 6.36 45.51 6.52L45.51 6.52L45.51 6.52Q45.51 6.80 45.44 8.11L45.44 8.11L45.44 8.11Q45.36 9.42 45.36 10.86L45.36 10.86L45.36 10.86Q45.36 12.31 45.53 12.66L45.53 12.66L45.53 12.66Q45.57 12.73 45.57 12.80L45.57 12.80L45.57 12.80Q45.57 12.98 45.04 12.98L45.04 12.98L45.04 12.98Q44.51 12.98 43.95 12.70L43.95 12.70L43.95 12.70Q43.81 12.63 43.81 12.25ZM46.42 12.77L46.42 12.77L46.42 12.77Q46.68 11.26 46.68 9.14L46.68 9.14L46.68 9.14Q46.68 7.03 46.55 6.40L46.55 6.40L46.55 6.40Q46.55 6.22 46.97 6.22L46.97 6.22L46.97 6.22Q47.61 6.22 47.82 6.71L47.82 6.71L47.82 6.71Q47.84 6.75 47.89 6.75L47.89 6.75L47.89 6.75Q47.95 6.75 47.98 6.72L47.98 6.72L47.98 6.72Q48.41 6.27 49.32 6.27L49.32 6.27L49.32 6.27Q50.23 6.27 50.76 6.73L50.76 6.73L50.76 6.73Q51.30 7.20 51.30 8.08L51.30 8.08L51.30 8.08Q51.30 8.61 51.20 9.59L51.20 9.59L51.20 9.59Q51.11 10.57 51.11 11.05L51.11 11.05L51.11 11.05Q51.11 12.18 51.49 12.68L51.49 12.68L51.49 12.68Q51.55 12.75 51.55 12.82L51.55 12.82L51.55 12.82Q51.55 13.01 51.16 13.01L51.16 13.01L51.16 13.01Q49.42 13.01 49.42 11.47L49.42 11.47L49.42 11.47Q49.42 10.88 49.69 9.83L49.69 9.83L49.69 9.83Q49.95 8.78 49.95 8.23L49.95 8.23L49.95 8.23Q49.95 7.11 49.03 7.11L49.03 7.11L49.03 7.11Q48.58 7.11 48.35 7.38L48.35 7.38L48.35 7.38Q48.12 7.64 48.09 7.99L48.09 7.99L48.09 7.99Q48.06 8.33 48.06 9.28L48.06 9.28L48.06 9.28Q48.06 10.74 48.16 11.82L48.16 11.82L48.19 12.12L48.19 12.12Q48.19 12.52 47.68 12.73L47.68 12.73L47.68 12.73Q47.17 12.95 46.79 12.95L46.79 12.95L46.79 12.95Q46.42 12.95 46.42 12.77ZM52.93 7.02L52.93 7.02L52.93 7.02Q53.24 6.71 53.75 6.49L53.75 6.49L53.75 6.49Q54.25 6.27 54.71 6.27L54.71 6.27L54.71 6.27Q55.17 6.27 55.65 6.48L55.65 6.48L55.65 6.48Q55.71 6.48 55.73 6.45L55.73 6.45L55.73 6.45Q56.10 6.09 56.80 6.09L56.80 6.09L56.80 6.09Q56.97 6.09 56.97 6.24L56.97 6.24L56.97 6.24Q56.97 6.26 56.94 6.37L56.94 6.37L56.94 6.37Q56.91 6.48 56.87 6.70L56.87 6.70L56.87 6.70Q56.83 6.92 56.80 7.22L56.80 7.22L56.80 7.22Q56.70 8.02 56.69 8.99L56.69 8.99L56.69 8.99Q56.69 9.95 56.69 10.92L56.69 10.92L56.73 13.86L56.73 13.86Q56.73 15.27 56 16.21L56 16.21L56 16.21Q55.71 16.59 55.11 16.87L55.11 16.87L55.11 16.87Q54.52 17.15 53.72 17.15L53.72 17.15L53.72 17.15Q53.54 17.04 53.54 16.93L53.54 16.93L53.54 16.93Q53.54 16.81 53.69 16.74L53.69 16.74L53.69 16.74Q54.57 16.34 54.95 14.82L54.95 14.82L54.95 14.82Q55.33 13.30 55.33 10.21L55.33 10.21L55.30 8.25L55.26 7.29L55.26 7.29Q55.26 7.17 54.87 7.11L54.87 7.11L54.87 7.11Q54.36 7.11 54.02 7.44L54.02 7.44L54.02 7.44Q53.68 7.77 53.55 8.30L53.55 8.30L53.55 8.30Q53.33 9.16 53.33 9.78L53.33 9.78L53.33 9.78Q53.33 10.40 53.53 10.88L53.53 10.88L53.53 10.88Q53.73 11.35 54.24 11.35L54.24 11.35L54.24 11.35Q54.38 11.35 54.49 11.30L54.49 11.30L54.49 11.30Q54.61 11.24 54.66 11.24L54.66 11.24L54.66 11.24Q54.80 11.24 54.80 11.52L54.80 11.52L54.80 11.52Q54.80 11.80 54.75 11.98L54.75 11.98L54.75 11.98Q54.71 12.15 54.59 12.36L54.59 12.36L54.59 12.36Q54.31 12.82 53.49 12.82L53.49 12.82L53.49 12.82Q52.68 12.82 52.33 12.24L52.33 12.24L52.33 12.24Q51.97 11.63 51.91 11.16L51.91 11.16L51.91 11.16Q51.83 10.44 51.83 10.22L51.83 10.22L51.83 10.22Q51.83 10.00 51.83 9.86L51.83 9.86L51.83 9.86Q51.84 9.73 51.90 9.33L51.90 9.33L51.90 9.33Q51.97 8.93 52.07 8.57L52.07 8.57L52.07 8.57Q52.18 8.22 52.40 7.78L52.40 7.78L52.40 7.78Q52.63 7.34 52.93 7.02ZM66.16 9.46L66.16 9.46L66.16 9.46Q66.43 9.46 66.43 10.14L66.43 10.14L66.43 10.14Q66.43 10.81 66.18 11.34L66.18 11.34L66.18 11.34Q65.93 11.87 65.57 12.17L65.57 12.17L65.57 12.17Q65.21 12.46 64.76 12.64L64.76 12.64L64.76 12.64Q63.27 13.30 61.96 12.61L61.96 12.61L61.96 12.61Q61.31 12.26 60.96 11.78L60.96 11.78L60.96 11.78Q60.61 11.30 60.40 10.63L60.40 10.63L60.40 10.63Q60.07 9.62 60.07 8.51L60.07 8.51L60.07 8.51Q60.07 7.41 60.28 6.44L60.28 6.44L60.28 6.44Q60.49 5.47 60.93 4.60L60.93 4.60L60.93 4.60Q61.36 3.72 62.16 3.19L62.16 3.19L62.16 3.19Q62.96 2.66 64.01 2.66L64.01 2.66L64.01 2.66Q64.46 2.66 64.94 2.81L64.94 2.81L64.94 2.81Q65.42 2.95 65.73 3.17L65.73 3.17L65.73 3.17Q66.04 3.39 66.28 3.84L66.28 3.84L66.28 3.84Q66.51 4.28 66.51 4.89L66.51 4.89L66.51 4.89Q66.51 5.53 66.21 6.05L66.21 6.05L66.21 6.05Q66.07 6.29 65.76 6.47L65.76 6.47L65.76 6.47Q65.45 6.66 65.03 6.66L65.03 6.66L65.03 6.66Q64.39 6.66 64.12 6.09L64.12 6.09L64.12 6.09Q64.01 5.87 64.01 5.60L64.01 5.60L64.01 5.60Q64.01 5.33 64.19 5.29L64.19 5.29L64.19 5.29Q64.39 5.24 64.55 4.98L64.55 4.98L64.55 4.98Q64.72 4.73 64.72 4.40L64.72 4.40L64.72 4.40Q64.72 4.13 64.58 3.93L64.58 3.93L64.58 3.93Q64.32 3.58 63.81 3.58L63.81 3.58L63.81 3.58Q63.31 3.58 62.89 4.05L62.89 4.05L62.89 4.05Q62.48 4.51 62.27 5.21L62.27 5.21L62.27 5.21Q61.85 6.61 61.85 7.78L61.85 7.78L61.85 7.78Q61.85 8.96 62.17 9.67L62.17 9.67L62.17 9.67Q62.57 10.56 63.17 10.85L63.17 10.85L63.17 10.85Q63.55 11.03 64.04 11.03L64.04 11.03L64.04 11.03Q64.86 11.03 65.52 10.29L65.52 10.29L65.52 10.29Q65.80 10.00 65.98 9.59L65.98 9.59L65.98 9.59Q66.05 9.46 66.16 9.46ZM69.01 5.15L69.01 5.15L68.99 6.51L68.99 6.51Q68.99 6.59 69.05 6.59L69.05 6.59L69.05 6.59Q69.10 6.59 69.16 6.55L69.16 6.55L69.16 6.55Q69.51 6.31 70.27 6.31L70.27 6.31L70.27 6.31Q71.54 6.31 72.03 7.18L72.03 7.18L72.03 7.18Q72.21 7.50 72.21 8.04L72.21 8.04L72.21 8.04Q72.21 8.57 72.15 9.51L72.15 9.51L72.15 9.51Q72.09 10.44 72.09 10.84L72.09 10.84L72.09 10.84Q72.09 12.21 72.48 12.66L72.48 12.66L72.48 12.66Q72.55 12.73 72.55 12.80L72.55 12.80L72.55 12.80Q72.55 12.94 71.95 12.94L71.95 12.94L71.95 12.94Q70.32 12.94 70.32 11.42L70.32 11.42L70.32 11.42Q70.32 10.84 70.60 9.77L70.60 9.77L70.60 9.77Q70.88 8.71 70.88 8.20L70.88 8.20L70.88 8.20Q70.88 7.70 70.64 7.43L70.64 7.43L70.64 7.43Q70.41 7.15 69.99 7.15L69.99 7.15L69.99 7.15Q69.57 7.15 69.32 7.34L69.32 7.34L69.32 7.34Q69.08 7.52 69.02 7.71L69.02 7.71L68.98 7.90L68.98 7.90Q68.96 8.16 68.96 9.59L68.96 9.59L68.96 9.59Q68.96 11.02 69.03 11.45L69.03 11.45L69.03 11.45Q69.10 11.87 69.10 11.93L69.10 11.93L69.10 11.93Q69.10 12.33 68.56 12.65L68.56 12.65L68.56 12.65Q68.01 12.96 67.48 12.96L67.48 12.96L67.48 12.96Q67.28 12.96 67.28 12.74L67.28 12.74L67.31 12.47L67.31 12.47Q67.62 10.12 67.62 7.38L67.62 7.38L67.62 7.38Q67.62 6.31 67.54 5.22L67.54 5.22L67.52 4.91L67.52 4.91Q67.49 4.52 67.36 4.24L67.36 4.24L67.36 4.24Q67.23 3.96 67.12 3.88L67.12 3.88L66.99 3.81L66.99 3.81Q66.89 3.75 66.89 3.68L66.89 3.68L66.89 3.68Q66.89 3.49 67.55 3.20L67.55 3.20L67.55 3.20Q68.21 2.91 68.56 2.91L68.56 2.91L68.56 2.91Q68.92 2.91 68.95 3.07L68.95 3.07L68.95 3.07Q69.01 3.78 69.01 5.15ZM74.41 5.18L74.41 5.18L74.07 5.17L74.07 5.17Q73.70 5.17 73.58 5.35L73.58 5.35L73.58 5.35Q73.56 5.39 73.51 5.39L73.51 5.39L73.51 5.39Q73.33 5.39 73.33 4.77L73.33 4.77L73.33 4.77Q73.33 4.14 73.52 3.98L73.52 3.98L73.52 3.98Q73.71 3.81 74.18 3.81L74.18 3.81L74.18 3.81Q74.65 3.81 74.82 3.97L74.82 3.97L74.82 3.97Q74.98 4.13 74.98 4.51L74.98 4.51L74.98 4.51Q74.98 4.89 74.86 5.03L74.86 5.03L74.86 5.03Q74.73 5.18 74.41 5.18ZM73.29 12.25L73.29 12.25L73.44 8.99L73.44 8.99Q73.44 7.83 73.18 7.41L73.18 7.41L73.18 7.41Q73.09 7.27 72.98 7.20L72.98 7.20L72.98 7.20Q72.90 7.17 72.90 7.08L72.90 7.08L72.90 7.08Q72.90 6.83 73.61 6.59L73.61 6.59L73.61 6.59Q74.33 6.36 74.66 6.36L74.66 6.36L74.66 6.36Q74.98 6.36 75.00 6.52L75.00 6.52L75.00 6.52Q75.00 6.80 74.92 8.11L74.92 8.11L74.92 8.11Q74.84 9.42 74.84 10.86L74.84 10.86L74.84 10.86Q74.84 12.31 75.01 12.66L75.01 12.66L75.01 12.66Q75.05 12.73 75.05 12.80L75.05 12.80L75.05 12.80Q75.05 12.98 74.52 12.98L74.52 12.98L74.52 12.98Q73.99 12.98 73.43 12.70L73.43 12.70L73.43 12.70Q73.29 12.63 73.29 12.25ZM77.24 9.11L77.24 9.11L77.25 9.46L77.25 9.46Q77.25 9.55 77.36 9.55L77.36 9.55L77.36 9.55Q77.81 9.51 78.15 9.32L78.15 9.32L78.15 9.32Q78.48 9.13 78.65 8.89L78.65 8.89L78.65 8.89Q78.99 8.37 79.02 7.99L79.02 7.99L79.03 7.83L79.03 7.83Q79.03 7.07 78.43 7.07L78.43 7.07L78.43 7.07Q77.98 7.07 77.70 7.46L77.70 7.46L77.70 7.46Q77.24 8.08 77.24 9.11ZM80.29 10.98L80.29 10.98L80.29 10.98Q80.29 11.51 80.07 11.91L80.07 11.91L80.07 11.91Q79.86 12.31 79.58 12.49L79.58 12.49L79.58 12.49Q79.31 12.68 78.95 12.80L78.95 12.80L78.95 12.80Q78.48 12.94 78.06 12.94L78.06 12.94L78.06 12.94Q76.89 12.94 76.33 12.05L76.33 12.05L76.33 12.05Q75.77 11.17 75.77 9.81L75.77 9.81L75.77 9.81Q75.77 8.44 76.46 7.38L76.46 7.38L76.46 7.38Q77.15 6.31 78.54 6.31L78.54 6.31L78.54 6.31Q79.80 6.31 80.25 7.20L80.25 7.20L80.25 7.20Q80.43 7.53 80.43 7.83L80.43 7.83L80.43 7.83Q80.43 8.13 80.40 8.31L80.40 8.31L80.40 8.31Q80.37 8.48 80.21 8.83L80.21 8.83L80.21 8.83Q80.04 9.18 79.76 9.46L79.76 9.46L79.76 9.46Q79.48 9.74 78.88 10.00L78.88 10.00L78.88 10.00Q78.27 10.25 77.46 10.33L77.46 10.33L77.46 10.33Q77.35 10.33 77.35 10.43L77.35 10.43L77.35 10.43Q77.35 10.56 77.44 10.80L77.44 10.80L77.44 10.80Q77.53 11.05 77.64 11.21L77.64 11.21L77.64 11.21Q77.95 11.61 78.55 11.61L78.55 11.61L78.55 11.61Q79.16 11.61 79.58 11.21L79.58 11.21L79.58 11.21Q79.80 11.00 79.94 10.70L79.94 10.70L79.94 10.70Q80.00 10.58 80.09 10.58L80.09 10.58L80.09 10.58Q80.18 10.58 80.23 10.74L80.23 10.74L80.23 10.74Q80.29 10.89 80.29 10.98ZM82.88 9.17L82.88 9.17L82.95 11.97L82.95 11.97Q82.95 12.85 82.72 13.53L82.72 13.53L82.72 13.53Q82.49 14.21 82.15 14.55L82.15 14.55L82.15 14.55Q81.47 15.26 80.95 15.36L80.95 15.36L80.71 15.41L80.71 15.41Q80.50 15.41 80.50 15.29L80.50 15.29L80.57 15.08L80.57 15.08Q81.59 13.66 81.59 8.13L81.59 8.13L81.59 8.13Q81.59 7.63 81.58 7.38L81.58 7.38L81.58 7.38Q81.28 7.38 80.99 7.42L80.99 7.42L80.98 7.42L80.98 7.42Q80.82 7.42 80.82 7.27L80.82 7.27L80.86 6.73L80.86 6.73Q80.88 6.61 81.06 6.61L81.06 6.61L81.56 6.61L81.56 5.67L81.59 4.34L81.59 4.34Q81.59 4.24 81.63 4.12L81.63 4.12L81.63 4.12Q81.66 4.00 81.93 3.76L81.93 3.76L81.93 3.76Q82.19 3.51 82.71 3.31L82.71 3.31L82.71 3.31Q83.23 3.11 83.60 3.11L83.60 3.11L83.60 3.11Q83.97 3.11 83.97 3.33L83.97 3.33L83.97 3.33Q83.97 3.42 83.85 3.47L83.85 3.47L83.85 3.47Q83.44 3.60 83.18 4.19L83.18 4.19L83.18 4.19Q82.92 4.79 82.92 6.22L82.92 6.22L82.92 6.61L82.92 6.61Q83.64 6.58 83.86 6.54L83.86 6.54L83.86 6.54Q83.96 6.54 83.96 6.71L83.96 6.71L83.96 6.71Q83.96 6.87 83.81 7.12L83.81 7.12L83.81 7.12Q83.66 7.36 83.45 7.37L83.45 7.37L83.45 7.37Q83.23 7.38 82.91 7.36L82.91 7.36L82.91 7.36Q82.88 8.43 82.88 9.17Z"></path></g><!----><!----></svg>